<svg xmlns="http://www.w3.org/2000/svg" viewBox="0 0 100 100" role="img" aria-label="Universal QR Tool logo"><rect width="100" height="100" rx="18.00" fill="#4f46e5"/><rect x="8.28" y="8.28" width="3.44" height="3.44" rx="0.88" fill="#fff"/><rect x="12.28" y="8.28" width="3.44" height="3.44" rx="0.88" fill="#fff"/><rect x="16.28" y="8.28" width="3.44" height="3.44" rx="0.88" fill="#fff"/><rect x="20.28" y="8.28" width="3.44" height="3.44" rx="0.88" fill="#fff"/><rect x="24.28" y="8.28" width="3.44" height="3.44" rx="0.88" fill="#fff"/><rect x="28.28" y="8.28" width="3.44" height="3.44" rx="0.88" fill="#fff"/><rect x="32.28" y="8.28" width="3.44" height="3.44" rx="0.88" fill="#fff"/><rect x="44.28" y="8.28" width="3.44" height="3.44" rx="0.88" fill="#fff"/><rect x="48.28" y="8.28" width="3.44" height="3.44" rx="0.88" fill="#fff"/><rect x="64.28" y="8.28" width="3.44" height="3.44" rx="0.88" fill="#fff"/><rect x="68.28" y="8.28" width="3.44" height="3.44" rx="0.88" fill="#fff"/><rect x="72.28" y="8.28" width="3.44" height="3.44" rx="0.88" fill="#fff"/><rect x="76.28" y="8.28" width="3.44" height="3.44" rx="0.88" fill="#fff"/><rect x="80.28" y="8.28" width="3.44" height="3.44" rx="0.88" fill="#fff"/><rect x="84.28" y="8.28" width="3.44" height="3.44" rx="0.88" fill="#fff"/><rect x="88.28" y="8.28" width="3.44" height="3.44" rx="0.88" fill="#fff"/><rect x="8.28" y="12.28" width="3.44" height="3.44" rx="0.88" fill="#fff"/><rect x="32.28" y="12.28" width="3.44" height="3.44" rx="0.88" fill="#fff"/><rect x="40.28" y="12.28" width="3.44" height="3.44" rx="0.88" fill="#fff"/><rect x="48.28" y="12.28" width="3.44" height="3.44" rx="0.88" fill="#fff"/><rect x="52.28" y="12.28" width="3.44" height="3.44" rx="0.88" fill="#fff"/><rect x="64.28" y="12.28" width="3.44" height="3.44" rx="0.88" fill="#fff"/><rect x="88.28" y="12.28" width="3.44" height="3.44" rx="0.88" fill="#fff"/><rect x="8.28" y="16.28" width="3.44" height="3.44" rx="0.88" fill="#fff"/><rect x="16.28" y="16.28" width="3.44" height="3.44" rx="0.88" fill="#fff"/><rect x="20.28" y="16.28" width="3.44" height="3.44" rx="0.88" fill="#fff"/><rect x="24.28" y="16.28" width="3.44" height="3.44" rx="0.88" fill="#fff"/><rect x="32.28" y="16.28" width="3.44" height="3.44" rx="0.88" fill="#fff"/><rect x="64.28" y="16.28" width="3.44" height="3.44" rx="0.88" fill="#fff"/><rect x="72.28" y="16.28" width="3.44" height="3.44" rx="0.88" fill="#fff"/><rect x="76.28" y="16.28" width="3.44" height="3.44" rx="0.88" fill="#fff"/><rect x="80.28" y="16.28" width="3.44" height="3.44" rx="0.88" fill="#fff"/><rect x="88.28" y="16.28" width="3.44" height="3.44" rx="0.88" fill="#fff"/><rect x="8.28" y="20.28" width="3.44" height="3.44" rx="0.88" fill="#fff"/><rect x="16.28" y="20.28" width="3.44" height="3.44" rx="0.88" fill="#fff"/><rect x="20.28" y="20.28" width="3.44" height="3.44" rx="0.88" fill="#fff"/><rect x="24.28" y="20.28" width="3.44" height="3.44" rx="0.88" fill="#fff"/><rect x="32.28" y="20.28" width="3.44" height="3.44" rx="0.88" fill="#fff"/><rect x="44.28" y="20.28" width="3.44" height="3.44" rx="0.88" fill="#fff"/><rect x="52.28" y="20.28" width="3.44" height="3.44" rx="0.88" fill="#fff"/><rect x="56.28" y="20.28" width="3.44" height="3.44" rx="0.88" fill="#fff"/><rect x="64.28" y="20.28" width="3.44" height="3.44" rx="0.88" fill="#fff"/><rect x="72.28" y="20.28" width="3.44" height="3.44" rx="0.88" fill="#fff"/><rect x="76.28" y="20.28" width="3.44" height="3.44" rx="0.88" fill="#fff"/><rect x="80.28" y="20.28" width="3.44" height="3.44" rx="0.88" fill="#fff"/><rect x="88.28" y="20.28" width="3.44" height="3.44" rx="0.88" fill="#fff"/><rect x="8.28" y="24.28" width="3.44" height="3.44" rx="0.88" fill="#fff"/><rect x="16.28" y="24.28" width="3.44" height="3.44" rx="0.88" fill="#fff"/><rect x="20.28" y="24.28" width="3.44" height="3.44" rx="0.88" fill="#fff"/><rect x="24.28" y="24.28" width="3.44" height="3.44" rx="0.88" fill="#fff"/><rect x="32.28" y="24.28" width="3.44" height="3.44" rx="0.88" fill="#fff"/><rect x="40.28" y="24.28" width="3.44" height="3.44" rx="0.88" fill="#fff"/><rect x="52.28" y="24.28" width="3.44" height="3.44" rx="0.88" fill="#fff"/><rect x="56.28" y="24.28" width="3.44" height="3.44" rx="0.88" fill="#fff"/><rect x="64.28" y="24.28" width="3.44" height="3.44" rx="0.88" fill="#fff"/><rect x="72.28" y="24.28" width="3.44" height="3.44" rx="0.88" fill="#fff"/><rect x="76.28" y="24.28" width="3.44" height="3.44" rx="0.88" fill="#fff"/><rect x="80.28" y="24.28" width="3.44" height="3.44" rx="0.88" fill="#fff"/><rect x="88.28" y="24.28" width="3.44" height="3.44" rx="0.88" fill="#fff"/><rect x="8.28" y="28.28" width="3.44" height="3.44" rx="0.88" fill="#fff"/><rect x="32.28" y="28.28" width="3.44" height="3.44" rx="0.88" fill="#fff"/><rect x="52.28" y="28.28" width="3.44" height="3.44" rx="0.88" fill="#fff"/><rect x="64.28" y="28.28" width="3.44" height="3.44" rx="0.88" fill="#fff"/><rect x="88.28" y="28.28" width="3.44" height="3.44" rx="0.88" fill="#fff"/><rect x="8.28" y="32.28" width="3.44" height="3.44" rx="0.88" fill="#fff"/><rect x="12.28" y="32.28" width="3.44" height="3.44" rx="0.88" fill="#fff"/><rect x="16.28" y="32.28" width="3.44" height="3.44" rx="0.88" fill="#fff"/><rect x="20.28" y="32.28" width="3.44" height="3.44" rx="0.88" fill="#fff"/><rect x="24.28" y="32.28" width="3.44" height="3.44" rx="0.88" fill="#fff"/><rect x="28.28" y="32.28" width="3.44" height="3.44" rx="0.88" fill="#fff"/><rect x="32.28" y="32.28" width="3.44" height="3.44" rx="0.88" fill="#fff"/><rect x="40.28" y="32.28" width="3.44" height="3.44" rx="0.88" fill="#fff"/><rect x="48.28" y="32.28" width="3.44" height="3.44" rx="0.88" fill="#fff"/><rect x="56.28" y="32.28" width="3.44" height="3.44" rx="0.88" fill="#fff"/><rect x="64.28" y="32.28" width="3.44" height="3.44" rx="0.88" fill="#fff"/><rect x="68.28" y="32.28" width="3.44" height="3.44" rx="0.88" fill="#fff"/><rect x="72.28" y="32.28" width="3.44" height="3.44" rx="0.88" fill="#fff"/><rect x="76.28" y="32.28" width="3.44" height="3.44" rx="0.88" fill="#fff"/><rect x="80.28" y="32.28" width="3.44" height="3.44" rx="0.88" fill="#fff"/><rect x="84.28" y="32.28" width="3.44" height="3.44" rx="0.88" fill="#fff"/><rect x="88.28" y="32.28" width="3.44" height="3.44" rx="0.88" fill="#fff"/><rect x="44.28" y="36.28" width="3.44" height="3.44" rx="0.88" fill="#fff"/><rect x="8.28" y="40.28" width="3.44" height="3.44" rx="0.88" fill="#fff"/><rect x="16.28" y="40.28" width="3.44" height="3.44" rx="0.88" fill="#fff"/><rect x="24.28" y="40.28" width="3.44" height="3.44" rx="0.88" fill="#fff"/><rect x="32.28" y="40.28" width="3.44" height="3.44" rx="0.88" fill="#fff"/><rect x="56.28" y="40.28" width="3.44" height="3.44" rx="0.88" fill="#fff"/><rect x="72.28" y="40.28" width="3.44" height="3.44" rx="0.88" fill="#fff"/><rect x="84.28" y="40.28" width="3.44" height="3.44" rx="0.88" fill="#fff"/><rect x="12.28" y="44.28" width="3.44" height="3.44" rx="0.88" fill="#fff"/><rect x="16.28" y="44.28" width="3.44" height="3.44" rx="0.88" fill="#fff"/><rect x="20.28" y="44.28" width="3.44" height="3.44" rx="0.88" fill="#fff"/><rect x="24.28" y="44.28" width="3.44" height="3.44" rx="0.88" fill="#fff"/><rect x="28.28" y="44.28" width="3.44" height="3.44" rx="0.88" fill="#fff"/><rect x="36.28" y="44.28" width="3.44" height="3.44" rx="0.88" fill="#fff"/><rect x="40.28" y="44.28" width="3.44" height="3.44" rx="0.88" fill="#fff"/><rect x="52.28" y="44.28" width="3.44" height="3.44" rx="0.88" fill="#fff"/><rect x="60.28" y="44.28" width="3.44" height="3.44" rx="0.88" fill="#fff"/><rect x="68.28" y="44.28" width="3.44" height="3.44" rx="0.88" fill="#fff"/><rect x="76.28" y="44.28" width="3.44" height="3.44" rx="0.88" fill="#fff"/><rect x="16.28" y="48.28" width="3.44" height="3.44" rx="0.88" fill="#fff"/><rect x="20.28" y="48.28" width="3.44" height="3.44" rx="0.88" fill="#fff"/><rect x="28.28" y="48.28" width="3.44" height="3.44" rx="0.88" fill="#fff"/><rect x="32.28" y="48.28" width="3.44" height="3.44" rx="0.88" fill="#fff"/><rect x="36.28" y="48.28" width="3.44" height="3.44" rx="0.88" fill="#fff"/><rect x="40.28" y="48.28" width="3.44" height="3.44" rx="0.88" fill="#fff"/><rect x="52.28" y="48.28" width="3.44" height="3.44" rx="0.88" fill="#fff"/><rect x="60.28" y="48.28" width="3.44" height="3.44" rx="0.88" fill="#fff"/><rect x="64.28" y="48.28" width="3.44" height="3.44" rx="0.88" fill="#fff"/><rect x="68.28" y="48.28" width="3.44" height="3.44" rx="0.88" fill="#fff"/><rect x="84.28" y="48.28" width="3.44" height="3.44" rx="0.88" fill="#fff"/><rect x="88.28" y="48.28" width="3.44" height="3.44" rx="0.88" fill="#fff"/><rect x="12.28" y="52.28" width="3.44" height="3.44" rx="0.88" fill="#fff"/><rect x="16.28" y="52.28" width="3.44" height="3.44" rx="0.88" fill="#fff"/><rect x="20.28" y="52.28" width="3.44" height="3.44" rx="0.88" fill="#fff"/><rect x="24.28" y="52.28" width="3.44" height="3.44" rx="0.88" fill="#fff"/><rect x="40.28" y="52.28" width="3.44" height="3.44" rx="0.88" fill="#fff"/><rect x="44.28" y="52.28" width="3.44" height="3.44" rx="0.88" fill="#fff"/><rect x="48.28" y="52.28" width="3.44" height="3.44" rx="0.88" fill="#fff"/><rect x="52.28" y="52.28" width="3.44" height="3.44" rx="0.88" fill="#fff"/><rect x="56.28" y="52.28" width="3.44" height="3.44" rx="0.88" fill="#fff"/><rect x="60.28" y="52.28" width="3.44" height="3.44" rx="0.88" fill="#fff"/><rect x="68.28" y="52.28" width="3.44" height="3.44" rx="0.88" fill="#fff"/><rect x="72.28" y="52.28" width="3.44" height="3.44" rx="0.88" fill="#fff"/><rect x="24.28" y="56.28" width="3.44" height="3.44" rx="0.88" fill="#fff"/><rect x="28.28" y="56.28" width="3.44" height="3.44" rx="0.88" fill="#fff"/><rect x="32.28" y="56.28" width="3.44" height="3.44" rx="0.88" fill="#fff"/><rect x="36.28" y="56.28" width="3.44" height="3.44" rx="0.88" fill="#fff"/><rect x="40.28" y="56.28" width="3.44" height="3.44" rx="0.88" fill="#fff"/><rect x="52.28" y="56.28" width="3.44" height="3.44" rx="0.88" fill="#fff"/><rect x="60.28" y="56.28" width="3.44" height="3.44" rx="0.88" fill="#fff"/><rect x="64.28" y="56.28" width="3.44" height="3.44" rx="0.88" fill="#fff"/><rect x="68.28" y="56.28" width="3.44" height="3.44" rx="0.88" fill="#fff"/><rect x="76.28" y="56.28" width="3.44" height="3.44" rx="0.88" fill="#fff"/><rect x="80.28" y="56.28" width="3.44" height="3.44" rx="0.88" fill="#fff"/><rect x="88.28" y="56.28" width="3.44" height="3.44" rx="0.88" fill="#fff"/><rect x="40.28" y="60.28" width="3.44" height="3.44" rx="0.88" fill="#fff"/><rect x="48.28" y="60.28" width="3.44" height="3.44" rx="0.88" fill="#fff"/><rect x="64.28" y="60.28" width="3.44" height="3.44" rx="0.88" fill="#fff"/><rect x="68.28" y="60.28" width="3.44" height="3.44" rx="0.88" fill="#fff"/><rect x="8.28" y="64.28" width="3.44" height="3.44" rx="0.88" fill="#fff"/><rect x="12.28" y="64.28" width="3.44" height="3.44" rx="0.88" fill="#fff"/><rect x="16.28" y="64.28" width="3.44" height="3.44" rx="0.88" fill="#fff"/><rect x="20.28" y="64.28" width="3.44" height="3.44" rx="0.88" fill="#fff"/><rect x="24.28" y="64.28" width="3.44" height="3.44" rx="0.88" fill="#fff"/><rect x="28.28" y="64.28" width="3.44" height="3.44" rx="0.88" fill="#fff"/><rect x="32.28" y="64.28" width="3.44" height="3.44" rx="0.88" fill="#fff"/><rect x="48.28" y="64.28" width="3.44" height="3.44" rx="0.88" fill="#fff"/><rect x="56.28" y="64.28" width="3.44" height="3.44" rx="0.88" fill="#fff"/><rect x="72.28" y="64.28" width="3.44" height="3.44" rx="0.88" fill="#fff"/><rect x="80.28" y="64.28" width="3.44" height="3.44" rx="0.88" fill="#fff"/><rect x="84.28" y="64.28" width="3.44" height="3.44" rx="0.88" fill="#fff"/><rect x="88.28" y="64.28" width="3.44" height="3.44" rx="0.88" fill="#fff"/><rect x="8.28" y="68.28" width="3.44" height="3.44" rx="0.88" fill="#fff"/><rect x="32.28" y="68.28" width="3.44" height="3.44" rx="0.88" fill="#fff"/><rect x="44.28" y="68.28" width="3.44" height="3.44" rx="0.88" fill="#fff"/><rect x="48.28" y="68.28" width="3.44" height="3.44" rx="0.88" fill="#fff"/><rect x="64.28" y="68.28" width="3.44" height="3.44" rx="0.88" fill="#fff"/><rect x="68.28" y="68.28" width="3.44" height="3.44" rx="0.88" fill="#fff"/><rect x="84.28" y="68.28" width="3.44" height="3.44" rx="0.88" fill="#fff"/><rect x="88.28" y="68.28" width="3.44" height="3.44" rx="0.88" fill="#fff"/><rect x="8.28" y="72.28" width="3.44" height="3.44" rx="0.88" fill="#fff"/><rect x="16.28" y="72.28" width="3.44" height="3.44" rx="0.88" fill="#fff"/><rect x="20.28" y="72.28" width="3.44" height="3.44" rx="0.88" fill="#fff"/><rect x="24.28" y="72.28" width="3.44" height="3.44" rx="0.88" fill="#fff"/><rect x="32.28" y="72.28" width="3.44" height="3.44" rx="0.88" fill="#fff"/><rect x="40.28" y="72.28" width="3.44" height="3.44" rx="0.88" fill="#fff"/><rect x="48.28" y="72.28" width="3.44" height="3.44" rx="0.88" fill="#fff"/><rect x="56.28" y="72.28" width="3.44" height="3.44" rx="0.88" fill="#fff"/><rect x="64.28" y="72.28" width="3.44" height="3.44" rx="0.88" fill="#fff"/><rect x="68.28" y="72.28" width="3.44" height="3.44" rx="0.88" fill="#fff"/><rect x="80.28" y="72.28" width="3.44" height="3.44" rx="0.88" fill="#fff"/><rect x="84.28" y="72.28" width="3.44" height="3.44" rx="0.88" fill="#fff"/><rect x="88.28" y="72.28" width="3.44" height="3.44" rx="0.88" fill="#fff"/><rect x="8.28" y="76.28" width="3.44" height="3.44" rx="0.88" fill="#fff"/><rect x="16.28" y="76.28" width="3.44" height="3.44" rx="0.88" fill="#fff"/><rect x="20.28" y="76.28" width="3.44" height="3.44" rx="0.88" fill="#fff"/><rect x="24.28" y="76.28" width="3.44" height="3.44" rx="0.88" fill="#fff"/><rect x="32.28" y="76.28" width="3.44" height="3.44" rx="0.88" fill="#fff"/><rect x="44.28" y="76.28" width="3.44" height="3.44" rx="0.88" fill="#fff"/><rect x="52.28" y="76.28" width="3.44" height="3.44" rx="0.88" fill="#fff"/><rect x="60.28" y="76.28" width="3.44" height="3.44" rx="0.88" fill="#fff"/><rect x="68.28" y="76.28" width="3.44" height="3.44" rx="0.88" fill="#fff"/><rect x="80.28" y="76.28" width="3.44" height="3.44" rx="0.88" fill="#fff"/><rect x="84.28" y="76.28" width="3.44" height="3.44" rx="0.88" fill="#fff"/><rect x="8.28" y="80.28" width="3.44" height="3.44" rx="0.88" fill="#fff"/><rect x="16.28" y="80.28" width="3.44" height="3.44" rx="0.88" fill="#fff"/><rect x="20.28" y="80.28" width="3.44" height="3.44" rx="0.88" fill="#fff"/><rect x="24.28" y="80.28" width="3.44" height="3.44" rx="0.88" fill="#fff"/><rect x="32.28" y="80.28" width="3.44" height="3.44" rx="0.88" fill="#fff"/><rect x="40.28" y="80.28" width="3.44" height="3.44" rx="0.88" fill="#fff"/><rect x="44.28" y="80.28" width="3.44" height="3.44" rx="0.88" fill="#fff"/><rect x="52.28" y="80.28" width="3.44" height="3.44" rx="0.88" fill="#fff"/><rect x="60.28" y="80.28" width="3.44" height="3.44" rx="0.88" fill="#fff"/><rect x="64.28" y="80.28" width="3.44" height="3.44" rx="0.88" fill="#fff"/><rect x="68.28" y="80.28" width="3.44" height="3.44" rx="0.88" fill="#fff"/><rect x="72.28" y="80.28" width="3.44" height="3.44" rx="0.88" fill="#fff"/><rect x="76.28" y="80.28" width="3.44" height="3.44" rx="0.88" fill="#fff"/><rect x="88.28" y="80.28" width="3.44" height="3.44" rx="0.88" fill="#fff"/><rect x="8.28" y="84.28" width="3.44" height="3.44" rx="0.88" fill="#fff"/><rect x="32.28" y="84.28" width="3.44" height="3.44" rx="0.88" fill="#fff"/><rect x="44.28" y="84.28" width="3.44" height="3.44" rx="0.88" fill="#fff"/><rect x="48.28" y="84.28" width="3.44" height="3.44" rx="0.88" fill="#fff"/><rect x="52.28" y="84.28" width="3.44" height="3.44" rx="0.88" fill="#fff"/><rect x="56.28" y="84.28" width="3.44" height="3.44" rx="0.88" fill="#fff"/><rect x="60.28" y="84.28" width="3.44" height="3.44" rx="0.88" fill="#fff"/><rect x="72.28" y="84.28" width="3.44" height="3.44" rx="0.88" fill="#fff"/><rect x="84.28" y="84.28" width="3.44" height="3.44" rx="0.88" fill="#fff"/><rect x="8.28" y="88.28" width="3.44" height="3.44" rx="0.88" fill="#fff"/><rect x="12.28" y="88.28" width="3.44" height="3.44" rx="0.88" fill="#fff"/><rect x="16.28" y="88.28" width="3.44" height="3.44" rx="0.88" fill="#fff"/><rect x="20.28" y="88.28" width="3.44" height="3.44" rx="0.88" fill="#fff"/><rect x="24.28" y="88.28" width="3.44" height="3.44" rx="0.88" fill="#fff"/><rect x="28.28" y="88.28" width="3.44" height="3.44" rx="0.88" fill="#fff"/><rect x="32.28" y="88.28" width="3.44" height="3.44" rx="0.88" fill="#fff"/><rect x="40.28" y="88.28" width="3.44" height="3.44" rx="0.88" fill="#fff"/><rect x="44.28" y="88.28" width="3.44" height="3.44" rx="0.88" fill="#fff"/><rect x="52.28" y="88.28" width="3.44" height="3.44" rx="0.88" fill="#fff"/><rect x="60.28" y="88.28" width="3.44" height="3.44" rx="0.88" fill="#fff"/><rect x="64.28" y="88.28" width="3.44" height="3.44" rx="0.88" fill="#fff"/><rect x="68.28" y="88.28" width="3.44" height="3.44" rx="0.88" fill="#fff"/><rect x="80.28" y="88.28" width="3.44" height="3.44" rx="0.88" fill="#fff"/><rect x="84.28" y="88.28" width="3.44" height="3.44" rx="0.88" fill="#fff"/><rect x="88.28" y="88.28" width="3.44" height="3.44" rx="0.88" fill="#fff"/></svg>